
<svg fill="#000000" height="800px" width="800px" version="1.1" id="Capa_1" xmlns="http://www.w3.org/2000/svg" xmlns:xlink="http://www.w3.org/1999/xlink" 
	 viewBox="0 0 318.524 318.524" xml:space="preserve">
<g>
	<g>
		<path d="M203.309,86.015c0-16.756-9.488-31.33-23.369-38.654c4.026-4.816,6.455-11.011,6.455-17.764
			c0-15.294-12.442-27.737-27.737-27.737c-15.294,0-27.737,12.443-27.737,27.737c0,6.964,2.586,13.331,6.84,18.207
			c-13.432,7.459-22.546,21.788-22.546,38.211v23.269h88.094V86.015z M158.658,16.86c7.023,0,12.737,5.714,12.737,12.737
			s-5.714,12.736-12.737,12.736s-12.737-5.713-12.737-12.736S151.635,16.86,158.658,16.86z M188.309,94.284h-58.094v-8.269
			c0-15.815,12.867-28.682,28.682-28.682h0.73c15.815,0,28.682,12.867,28.682,28.682L188.309,94.284L188.309,94.284z"/>
		<path d="M64.724,254.74c4.026-4.816,6.455-11.011,6.455-17.764c0-15.294-12.442-27.736-27.736-27.736
			s-27.737,12.442-27.737,27.736c0,6.964,2.586,13.331,6.84,18.208C9.114,262.642,0,276.971,0,293.394v23.27h88.094v-23.27
			C88.094,276.638,78.605,262.064,64.724,254.74z M43.443,224.239c7.023,0,12.736,5.713,12.736,12.736s-5.713,12.737-12.736,12.737
			s-12.737-5.714-12.737-12.737C30.706,229.952,36.42,224.239,43.443,224.239z M73.094,301.663H15v-8.27
			c0-15.815,12.866-28.681,28.681-28.681h0.731c15.815,0,28.682,12.866,28.682,28.681C73.094,293.393,73.094,301.663,73.094,301.663
			z"/>
		<path d="M295.154,254.74c4.026-4.816,6.455-11.011,6.455-17.764c0-15.294-12.442-27.736-27.736-27.736
			s-27.737,12.442-27.737,27.736c0,6.964,2.586,13.331,6.84,18.208c-13.432,7.459-22.546,21.788-22.546,38.21v23.27h88.094v-23.27
			C318.523,276.638,309.035,262.064,295.154,254.74z M273.873,224.239c7.022,0,12.736,5.713,12.736,12.736
			s-5.714,12.737-12.736,12.737c-7.023,0-12.737-5.714-12.737-12.737C261.136,229.952,266.85,224.239,273.873,224.239z
			 M303.523,301.663H245.43v-8.27c0-15.815,12.866-28.681,28.682-28.681h0.73c15.815,0,28.682,12.866,28.682,28.681v8.27H303.523z"
			/>
		<polygon points="166.762,134.949 151.762,134.949 151.762,184.342 99.429,236.675 110.035,247.282 159.262,198.055 
			208.488,247.282 219.096,236.675 166.762,184.342 		"/>
	</g>
	<g>
	</g>
	<g>
	</g>
	<g>
	</g>
	<g>
	</g>
	<g>
	</g>
	<g>
	</g>
	<g>
	</g>
	<g>
	</g>
	<g>
	</g>
	<g>
	</g>
	<g>
	</g>
	<g>
	</g>
	<g>
	</g>
	<g>
	</g>
	<g>
	</g>
</g>
</svg>